<svg data-v-423bf9ae="" xmlns="http://www.w3.org/2000/svg" viewBox="0 0 449 90" class="iconLeft"><!----><!----><!----><g data-v-423bf9ae="" id="c311f5b7-670e-4d93-af91-020547aaf779" fill="#221057" transform="matrix(9.66183568944126,0,0,9.66183568944126,118.4436761951284,-8.864735144602989)"><path d="M0.31 8.59L1.86 8.59L1.86 7.43L1.86 7.43Q1.86 7.43 1.91 7.43L1.91 7.43L1.91 7.43Q1.96 7.44 1.98 7.44L1.98 7.44L1.98 7.44Q2.00 7.44 2.06 7.44L2.06 7.44L2.06 7.44Q2.11 7.44 2.14 7.45L2.14 7.45L2.14 7.45Q2.17 7.45 2.22 7.45L2.22 7.45L2.22 7.45Q2.28 7.45 2.32 7.45L2.32 7.45L2.32 7.45Q2.36 7.46 2.41 7.46L2.41 7.46L2.41 7.46Q2.45 7.46 2.50 7.46L2.50 7.46L2.50 7.46Q2.87 7.46 3.19 7.29L3.19 7.29L3.19 7.29Q3.52 7.13 3.78 6.83L3.78 6.83L3.78 6.83Q4.03 6.52 4.18 6.05L4.18 6.05L4.18 6.05Q4.34 5.58 4.34 5.00L4.34 5.00L4.34 5.00Q4.34 4.04 3.87 3.56L3.87 3.56L3.87 3.56Q3.40 3.08 2.50 3.08L2.50 3.08L2.50 3.08Q2.17 3.08 1.68 3.10L1.68 3.10L1.68 3.10Q1.18 3.12 0.93 3.12L0.93 3.12L0.31 3.12L0.31 8.59ZM2.80 4.79L2.80 4.79L2.80 5.48L2.80 5.48Q2.80 5.95 2.60 6.20L2.60 6.20L2.60 6.20Q2.40 6.44 2.03 6.44L2.03 6.44L1.86 6.44L1.86 4.02L2.08 4.02L2.08 4.02Q2.43 4.02 2.62 4.23L2.62 4.23L2.62 4.23Q2.80 4.45 2.80 4.79ZM6.71 8.22L6.76 8.17L6.91 8.59L8.19 8.59L8.05 8.22L8.05 6.32L8.05 6.32Q8.05 5.81 7.98 5.48L7.98 5.48L7.98 5.48Q7.90 5.14 7.71 4.93L7.71 4.93L7.71 4.93Q7.52 4.71 7.21 4.62L7.21 4.62L7.21 4.62Q6.91 4.53 6.44 4.53L6.44 4.53L6.44 4.53Q5.92 4.53 5.41 4.68L5.41 4.68L5.41 4.68Q4.90 4.84 4.58 5.04L4.58 5.04L4.88 5.68L4.88 5.68Q5.06 5.59 5.37 5.52L5.37 5.52L5.37 5.52Q5.68 5.45 5.97 5.45L5.97 5.45L5.97 5.45Q6.31 5.45 6.46 5.57L6.46 5.57L6.46 5.57Q6.61 5.68 6.61 5.97L6.61 5.97L6.61 6.05L6.61 6.05Q6.45 6.05 6.28 6.07L6.28 6.07L6.28 6.07Q6.11 6.08 5.89 6.12L5.89 6.12L5.89 6.12Q5.67 6.16 5.47 6.23L5.47 6.23L5.47 6.23Q5.27 6.29 5.08 6.40L5.08 6.40L5.08 6.40Q4.88 6.51 4.74 6.65L4.74 6.65L4.74 6.65Q4.60 6.79 4.51 6.99L4.51 6.99L4.51 6.99Q4.42 7.20 4.42 7.44L4.42 7.44L4.42 7.44Q4.42 8.68 5.68 8.68L5.68 8.68L5.68 8.68Q5.87 8.68 6.05 8.63L6.05 8.63L6.05 8.63Q6.23 8.58 6.35 8.50L6.35 8.50L6.35 8.50Q6.47 8.43 6.57 8.35L6.57 8.35L6.57 8.35Q6.66 8.28 6.71 8.22L6.71 8.22ZM6.39 7.86L6.39 7.86L6.39 7.86Q5.99 7.86 5.99 7.28L5.99 7.28L5.99 7.28Q5.99 6.95 6.16 6.80L6.16 6.80L6.16 6.80Q6.33 6.64 6.61 6.64L6.61 6.64L6.61 7.76L6.61 7.76Q6.61 7.76 6.58 7.79L6.58 7.79L6.58 7.79Q6.56 7.81 6.50 7.84L6.50 7.84L6.50 7.84Q6.45 7.86 6.39 7.86ZM8.65 8.59L10.15 8.59L10.15 6.45L10.15 6.45Q10.29 6.20 10.77 6.20L10.77 6.20L10.77 6.20Q11.10 6.20 11.20 6.29L11.20 6.29L11.35 4.63L11.35 4.63Q11.23 4.59 11.11 4.59L11.11 4.59L11.11 4.59Q10.08 4.59 9.88 5.73L9.88 5.73L9.75 4.62L9.37 4.62L8.37 4.87L8.37 5.39L8.65 5.57L8.65 8.59ZM13.69 8.22L13.73 8.17L13.88 8.59L15.16 8.59L15.03 8.22L15.03 6.32L15.03 6.32Q15.03 5.81 14.95 5.48L14.95 5.48L14.95 5.48Q14.87 5.14 14.68 4.93L14.68 4.93L14.68 4.93Q14.49 4.71 14.19 4.62L14.19 4.62L14.19 4.62Q13.89 4.53 13.42 4.53L13.42 4.53L13.42 4.53Q12.89 4.53 12.39 4.68L12.39 4.68L12.39 4.68Q11.88 4.84 11.56 5.04L11.56 5.04L11.86 5.68L11.86 5.68Q12.04 5.59 12.35 5.52L12.35 5.52L12.35 5.52Q12.66 5.45 12.95 5.45L12.95 5.45L12.95 5.45Q13.29 5.45 13.44 5.57L13.44 5.57L13.44 5.57Q13.59 5.68 13.59 5.97L13.59 5.97L13.59 6.05L13.59 6.05Q13.43 6.05 13.26 6.07L13.26 6.07L13.26 6.07Q13.09 6.08 12.87 6.12L12.87 6.12L12.87 6.12Q12.65 6.16 12.45 6.23L12.45 6.23L12.45 6.23Q12.25 6.29 12.05 6.40L12.05 6.40L12.05 6.40Q11.86 6.51 11.72 6.65L11.72 6.65L11.72 6.65Q11.58 6.79 11.49 6.99L11.49 6.99L11.49 6.99Q11.40 7.20 11.40 7.44L11.40 7.44L11.40 7.44Q11.40 8.68 12.66 8.68L12.66 8.68L12.66 8.68Q12.85 8.68 13.02 8.63L13.02 8.63L13.02 8.63Q13.20 8.58 13.33 8.50L13.33 8.50L13.33 8.50Q13.45 8.43 13.54 8.35L13.54 8.35L13.54 8.35Q13.64 8.28 13.69 8.22L13.69 8.22ZM13.37 7.86L13.37 7.86L13.37 7.86Q12.97 7.86 12.97 7.28L12.97 7.28L12.97 7.28Q12.97 6.95 13.14 6.80L13.14 6.80L13.14 6.80Q13.30 6.64 13.59 6.64L13.59 6.64L13.59 7.76L13.59 7.76Q13.59 7.76 13.56 7.79L13.56 7.79L13.56 7.79Q13.53 7.81 13.48 7.84L13.48 7.84L13.48 7.84Q13.43 7.86 13.37 7.86ZM18.70 8.25L18.75 8.20L18.51 7.56L18.51 7.56Q18.35 7.69 18.11 7.75L18.11 7.75L18.11 7.75Q17.86 7.80 17.63 7.80L17.63 7.80L17.63 7.80Q17.53 7.80 17.46 7.79L17.46 7.79L17.46 7.79Q17.39 7.78 17.28 7.72L17.28 7.72L17.28 7.72Q17.17 7.66 17.10 7.55L17.10 7.55L17.10 7.55Q17.04 7.44 16.99 7.22L16.99 7.22L16.99 7.22Q16.94 7 16.94 6.69L16.94 6.69L16.94 6.69Q16.94 5.97 17.10 5.68L17.10 5.68L17.10 5.68Q17.26 5.39 17.68 5.39L17.68 5.39L17.68 5.39Q17.75 5.39 17.78 5.39L17.78 5.39L18.05 6.11L18.71 6.10L18.78 5.01L18.78 5.01Q18.78 5.01 18.69 4.91L18.69 4.91L18.69 4.91Q18.24 4.52 17.43 4.52L17.43 4.52L17.43 4.52Q17.01 4.52 16.64 4.67L16.64 4.67L16.64 4.67Q16.28 4.82 16.01 5.08L16.01 5.08L16.01 5.08Q15.75 5.35 15.59 5.76L15.59 5.76L15.59 5.76Q15.44 6.16 15.44 6.66L15.44 6.66L15.44 6.66Q15.44 7.57 15.94 8.13L15.94 8.13L15.94 8.13Q16.44 8.68 17.39 8.68L17.39 8.68L17.39 8.68Q17.67 8.68 17.91 8.64L17.91 8.64L17.91 8.64Q18.16 8.59 18.30 8.51L18.30 8.51L18.30 8.51Q18.45 8.44 18.56 8.37L18.56 8.37L18.56 8.37Q18.66 8.30 18.70 8.25L18.70 8.25ZM19.18 8.59L20.70 8.59L20.70 5.87L20.70 5.87Q20.70 5.86 20.75 5.82L20.75 5.82L20.75 5.82Q20.79 5.79 20.80 5.78L20.80 5.78L20.80 5.78Q20.81 5.77 20.85 5.74L20.85 5.74L20.85 5.74Q20.89 5.71 20.91 5.70L20.91 5.70L20.91 5.70Q20.93 5.69 20.97 5.67L20.97 5.67L20.97 5.67Q21.01 5.66 21.04 5.65L21.04 5.65L21.04 5.65Q21.08 5.65 21.12 5.65L21.12 5.65L21.12 5.65Q21.50 5.65 21.49 6.09L21.49 6.09L21.49 8.59L23.03 8.59L23.03 6.22L23.03 6.22Q23.03 6.19 23.03 6.13L23.03 6.13L23.03 6.13Q23.03 6.08 23.03 6.05L23.03 6.05L23.03 6.05Q23.03 5.23 22.77 4.88L22.77 4.88L22.77 4.88Q22.51 4.53 21.87 4.53L21.87 4.53L21.87 4.53Q21.69 4.53 21.50 4.60L21.50 4.60L21.50 4.60Q21.31 4.67 21.17 4.77L21.17 4.77L21.17 4.77Q21.04 4.87 20.93 4.97L20.93 4.97L20.93 4.97Q20.82 5.08 20.76 5.15L20.76 5.15L20.71 5.22L20.71 2.47L20.40 2.47L18.90 2.71L18.90 3.14L19.18 3.31L19.18 8.59ZM25.90 7.97L25.90 7.97L26.04 8.59L27.34 8.59L27.34 4.62L25.56 4.62L25.56 5.16L25.81 5.32L25.81 7.52L25.81 7.52Q25.80 7.53 25.77 7.55L25.77 7.55L25.77 7.55Q25.75 7.57 25.73 7.58L25.73 7.58L25.73 7.58Q25.72 7.59 25.70 7.60L25.70 7.60L25.70 7.60Q25.68 7.62 25.66 7.63L25.66 7.63L25.66 7.63Q25.65 7.64 25.62 7.65L25.62 7.65L25.62 7.65Q25.60 7.66 25.58 7.67L25.58 7.67L25.58 7.67Q25.57 7.67 25.55 7.68L25.55 7.68L25.55 7.68Q25.52 7.69 25.50 7.69L25.50 7.69L25.50 7.69Q25.48 7.69 25.45 7.69L25.45 7.69L25.45 7.69Q25.25 7.69 25.18 7.59L25.18 7.59L25.18 7.59Q25.10 7.49 25.11 7.28L25.11 7.28L25.11 4.62L23.41 4.62L23.41 5.16L23.58 5.32L23.58 6.99L23.58 6.99Q23.58 7.90 23.86 8.29L23.86 8.29L23.86 8.29Q24.14 8.68 24.80 8.68L24.80 8.68L24.80 8.68Q25.01 8.68 25.21 8.59L25.21 8.59L25.21 8.59Q25.42 8.50 25.56 8.37L25.56 8.37L25.56 8.37Q25.70 8.25 25.79 8.14L25.79 8.14L25.79 8.14Q25.87 8.03 25.90 7.97ZM29.08 8.68L29.08 8.68L29.08 8.68Q29.40 8.68 29.65 8.61L29.65 8.61L29.65 8.61Q29.91 8.54 30.03 8.48L30.03 8.48L30.03 8.48Q30.14 8.41 30.21 8.34L30.21 8.34L30.21 7.70L30.21 7.70Q30.16 7.75 30.08 7.77L30.08 7.77L30.08 7.77Q30.00 7.79 29.90 7.79L29.90 7.79L29.90 7.79Q29.68 7.79 29.57 7.67L29.57 7.67L29.57 7.67Q29.46 7.55 29.46 7.18L29.46 7.18L29.46 5.44L30.24 5.44L30.24 4.62L29.47 4.62L29.47 3.53L28.65 3.53L28.18 4.62L27.63 4.79L27.63 5.44L27.95 5.44L27.95 7.03L27.95 7.03Q27.95 7.93 28.20 8.31L28.20 8.31L28.20 8.31Q28.45 8.68 29.08 8.68ZM32.74 6.17L32.74 6.17L32.03 6.17L32.03 5.78L32.03 5.78Q32.03 5.61 32.04 5.50L32.04 5.50L32.04 5.50Q32.06 5.39 32.10 5.29L32.10 5.29L32.10 5.29Q32.14 5.18 32.23 5.14L32.23 5.14L32.23 5.14Q32.32 5.09 32.46 5.09L32.46 5.09L32.46 5.09Q32.62 5.09 32.68 5.33L32.68 5.33L32.68 5.33Q32.74 5.58 32.74 6.17ZM32.37 8.68L32.37 8.68L32.37 8.68Q32.65 8.68 32.96 8.62L32.96 8.62L32.96 8.62Q33.26 8.55 33.60 8.37L33.60 8.37L33.60 8.37Q33.93 8.18 34.10 7.90L34.10 7.90L33.83 7.42L33.83 7.42Q33.70 7.55 33.50 7.63L33.50 7.63L33.50 7.63Q33.31 7.72 33.12 7.77L33.12 7.77L33.12 7.77Q32.93 7.81 32.77 7.81L32.77 7.81L32.77 7.81Q32.60 7.81 32.48 7.78L32.48 7.78L32.48 7.78Q32.37 7.75 32.26 7.67L32.26 7.67L32.26 7.67Q32.14 7.58 32.09 7.41L32.09 7.41L32.09 7.41Q32.03 7.23 32.03 6.95L32.03 6.95L32.03 6.86L34.16 6.86L34.16 6.35L34.16 6.35Q34.16 5.39 33.76 4.96L33.76 4.96L33.76 4.96Q33.37 4.53 32.45 4.53L32.45 4.53L32.45 4.53Q31.49 4.53 30.96 5.06L30.96 5.06L30.96 5.06Q30.43 5.60 30.43 6.65L30.43 6.65L30.43 6.65Q30.43 7.08 30.53 7.44L30.53 7.44L30.53 7.44Q30.63 7.80 30.85 8.08L30.85 8.08L30.85 8.08Q31.08 8.37 31.46 8.53L31.46 8.53L31.46 8.53Q31.85 8.68 32.37 8.68Z"></path></g><defs data-v-423bf9ae=""><linearGradient data-v-423bf9ae="" gradientTransform="rotate(25)" id="5d55442b-e610-4c09-977a-ac66ef610d5e" x1="0%" y1="0%" x2="100%" y2="0%"><stop data-v-423bf9ae="" offset="0%" style="stop-color: rgb(146, 13, 233); stop-opacity: 1;"></stop><stop data-v-423bf9ae="" offset="100%" style="stop-color: rgb(21, 54, 241); stop-opacity: 1;"></stop></linearGradient></defs><g data-v-423bf9ae="" id="efb41cf4-6e62-4614-aec0-79544cfd618f" transform="matrix(2.158273341807389,0,0,2.158273341807389,-0.2985602033773347,-6.706474472860535)" stroke="none" fill="url(#5d55442b-e610-4c09-977a-ac66ef610d5e)"><path d="M34.8 21.3l-5.9 23.2 18.6-21.9c-1.8-1.7-4.5-2.8-7.5-2.8-1.9 0-3.5.5-5.2 1.5zM8.3 19.8C5.1 19.8 2.2 21 .5 23l18.7 21.9-5.7-23.5c-1.7-1.1-3.2-1.6-5.2-1.6zM29.9 21c-1.6-.7-3.8-1.2-5.7-1.2-2 0-4.1.5-5.8 1.2L24 44.1 29.9 21zM8.3 15c2.7 0 5.1.6 7.4 2 2.4-1.3 5.5-2 8.5-2s6.1.7 8.5 2c2.3-1.4 4.6-2 7.4-2 2.4 0 4.8.5 6.8 1.4-3.3-7.7-12.4-13.2-23-13.2-10.7 0-19.8 5.6-23 13.5C3.1 15.6 5.6 15 8.3 15z"></path></g><!----></svg>